<svg xmlns="http://www.w3.org/2000/svg" width="614" height="78" viewBox="0 0 614 78">
  <defs>
    <style>
      .cls-1 {
        fill: #090909;
      }

      .cls-1, .cls-2 {
        fill-rule: evenodd;
      }

      .cls-2 {
        fill: #d00000;
      }
    </style>
  </defs>
  <path id="UAISEARCH" class="cls-1" d="M-0.4,1.413v43.7q0,10.473,4.114,17.737A26.831,26.831,0,0,0,15.037,73.8a35.524,35.524,0,0,0,16.4,3.686A37.531,37.531,0,0,0,48.16,73.8,27.963,27.963,0,0,0,60.073,62.8q4.38-7.317,4.381-17.683V1.413H43.512v43.7q0,5.985-2.938,9.349t-8.708,3.366q-5.77,0-8.6-3.312t-2.831-9.4V1.413H-0.4Zm157.067,0V76.741h20.942V1.413H156.664ZM218,77.489a33.9,33.9,0,0,0,15.012-3.1,23.106,23.106,0,0,0,9.724-8.441A22.18,22.18,0,0,0,246.1,53.876a17.312,17.312,0,0,0-3.365-10.952,24.121,24.121,0,0,0-8.014-6.732,89.491,89.491,0,0,0-11.807-4.862q-4.807-1.708-7.265-2.831a15.148,15.148,0,0,1-4.114-2.671,4.873,4.873,0,0,1-1.656-3.686,5.123,5.123,0,0,1,1.5-3.953,5.43,5.43,0,0,1,3.846-1.389,7.487,7.487,0,0,1,5.075,1.71,6.713,6.713,0,0,1,2.084,5.129h22.759Q244.6,12.526,236.747,6.382t-21-6.144A37.5,37.5,0,0,0,201.22,2.909a22.481,22.481,0,0,0-10.044,7.853,21.135,21.135,0,0,0-3.633,12.448q0,7.16,3.366,11.593a22.829,22.829,0,0,0,7.907,6.731A90.212,90.212,0,0,0,210.73,46.29a54.712,54.712,0,0,1,10.043,4.06,5.67,5.67,0,0,1,3.1,5.129A4.777,4.777,0,0,1,222,59.485a8.5,8.5,0,0,1-9.99-.374q-2.031-1.816-2.351-5.77H187.33q0.641,11.647,9.082,17.9T218,77.489h0Zm86.013-59.3V1.413H255.82V76.741h48.188V59.966H276.762V46.4H300.8V30.476H276.762V18.188h27.246Zm62.079,58.553h22.118L360.852,1.413H336.7l-27.46,75.328h22.011l4.06-12.288h26.712Zm-25.43-28.315,8.014-24.361,8.12,24.362H340.657ZM456.588,76.741L439.6,47.358q8.12-2.457,12.341-8.281a22.43,22.43,0,0,0,4.221-13.516,24.069,24.069,0,0,0-3.206-12.341,22.089,22.089,0,0,0-9.509-8.655,34.167,34.167,0,0,0-15.387-3.152H395.043V76.741h20.942V48.961h2.244l14.959,27.781h23.4Zm-40.6-57.8H426.35q4.167,0,6.357,2.084a7.52,7.52,0,0,1,2.191,5.716,7.724,7.724,0,0,1-2.137,5.877q-2.139,2.031-6.411,2.03H415.985V18.936Zm47.121,19.981a41.66,41.66,0,0,0,4.648,19.927,33.369,33.369,0,0,0,13.195,13.57,39.051,39.051,0,0,0,19.66,4.862q14.1,0,23.721-7.533t12.394-20.461H514.179A15.1,15.1,0,0,1,508.57,55.8a15.266,15.266,0,0,1-8.281,2.244A14.326,14.326,0,0,1,488.7,52.861q-4.328-5.181-4.327-13.944,0-8.655,4.327-13.837A14.331,14.331,0,0,1,500.289,19.9a15.267,15.267,0,0,1,8.281,2.244,15.115,15.115,0,0,1,5.609,6.518h22.545Q533.945,15.733,524.33,8.2T500.609,0.665a39.069,39.069,0,0,0-19.66,4.862A33.39,33.39,0,0,0,467.754,19.1a41.436,41.436,0,0,0-4.648,19.82h0ZM593.14,1.413V29.728H567.6V1.413H546.661V76.741H567.6V46.5H593.14V76.741h20.943V1.413H593.14Z"/>
  <path id="Preenchimento_de_Cor_1" data-name="Preenchimento de Cor 1" class="cls-2" d="M70.186,77h79l-38-76Z"/>
</svg>
